<svg aria-hidden="true" style="position: absolute; width: 0; height: 0; overflow: hidden;" version="1.1" xmlns="http://www.w3.org/2000/svg" xmlns:xlink="http://www.w3.org/1999/xlink">
<defs>
<symbol id="icon-menu" viewBox="0 0 32 32">
<path d="M26.667 23.333c1.104 0.001 1.999 0.896 1.999 2 0 1.037-0.789 1.889-1.799 1.99l-0.008 0.001-0.192 0.009h-21.333c-1.104-0.001-1.999-0.896-1.999-2 0-1.037 0.789-1.889 1.799-1.99l0.008-0.001 0.192-0.009h21.333zM26.667 14c1.105 0 2 0.895 2 2s-0.895 2-2 2v0h-21.333c-1.105 0-2-0.895-2-2s0.895-2 2-2v0h21.333zM26.667 4.667c1.105 0 2 0.895 2 2s-0.895 2-2 2v0h-21.333c-1.105 0-2-0.895-2-2s0.895-2 2-2v0h21.333z" fill="#2f2f30"></path>
</symbol>
<symbol id="icon-close" viewBox="0 0 32 32">
<path d="M6.1 6.1c0.362-0.362 0.862-0.586 1.414-0.586s1.052 0.224 1.414 0.586l7.072 7.072 7.072-7.072c0.359-0.347 0.849-0.561 1.389-0.561 1.105 0 2 0.895 2 2 0 0.54-0.214 1.030-0.562 1.39l0.001-0.001-7.072 7.072 7.072 7.072c0.347 0.359 0.561 0.849 0.561 1.389 0 1.105-0.895 2-2 2-0.54 0-1.030-0.214-1.39-0.562l0.001 0.001-7.072-7.072-7.072 7.072c-0.359 0.347-0.849 0.561-1.389 0.561-1.105 0-2-0.895-2-2 0-0.54 0.214-1.030 0.562-1.39l-0.001 0.001 7.072-7.072-7.072-7.072c-0.362-0.362-0.586-0.862-0.586-1.414s0.224-1.052 0.586-1.414v0z" fill="#2f2f30"></path>
</symbol>
<symbol id="icon-heart" viewBox="0 0 32 32">
<path d="M23.6 2c-3.363 0-6.258 2.736-7.599 5.594-1.342-2.858-4.237-5.594-7.601-5.594-4.637 0-8.4 3.764-8.4 8.401 0 9.433 9.516 11.906 16.001 21.232 6.13-9.268 15.999-12.1 15.999-21.232 0-4.637-3.763-8.401-8.4-8.401z" fill="#2f2f30"></path>
</symbol>
<symbol id="icon-facebook" viewBox="0 0 32 32">
<path d="M21.329 5.313h2.921V.225C23.746.156 22.013 0 19.994 0c-4.212 0-7.097 2.649-7.097 7.519V12H8.249v5.688h4.648V32h5.699V17.689h4.46l.708-5.688h-5.169V8.082c.001-1.644.444-2.769 2.735-2.769z" fill="#2f2f30"></path>
</symbol>
<symbol id="icon-instagram" viewBox="0 0 32 32">
<path d="M31.969 9.408c-.075-1.7-.35-2.869-.744-3.882a7.803 7.803 0 0 0-1.85-2.838A7.867 7.867 0 0 0 26.543.844C25.524.45 24.361.175 22.661.1 20.948.019 20.404 0 16.06 0s-4.888.019-6.595.094c-1.7.075-2.869.35-3.882.744a7.803 7.803 0 0 0-2.838 1.85A7.867 7.867 0 0 0 .901 5.52C.507 6.539.232 7.702.157 9.402c-.081 1.713-.1 2.257-.1 6.601s.019 4.888.094 6.595c.075 1.7.35 2.869.744 3.882a7.895 7.895 0 0 0 1.85 2.838 7.867 7.867 0 0 0 2.832 1.844c1.019.394 2.182.669 3.882.744 1.706.075 2.25.094 6.595.094s4.888-.018 6.595-.094c1.7-.075 2.869-.35 3.882-.744a8.181 8.181 0 0 0 4.682-4.682c.394-1.019.669-2.182.744-3.882.075-1.707.094-2.251.094-6.595s-.006-4.888-.081-6.595zm-2.882 13.065c-.069 1.563-.331 2.407-.55 2.969a5.307 5.307 0 0 1-3.038 3.038c-.563.219-1.413.481-2.969.55-1.688.075-2.194.094-6.464.094s-4.782-.018-6.464-.094c-1.563-.069-2.407-.331-2.969-.55a4.926 4.926 0 0 1-1.838-1.194 4.974 4.974 0 0 1-1.194-1.838c-.219-.563-.481-1.413-.55-2.969-.075-1.688-.094-2.194-.094-6.464s.019-4.782.094-6.464c.069-1.563.331-2.407.55-2.969a4.868 4.868 0 0 1 1.2-1.838A4.974 4.974 0 0 1 6.639 3.55c.563-.219 1.413-.481 2.969-.55 1.688-.075 2.194-.094 6.464-.094s4.782.019 6.464.094c1.563.069 2.407.331 2.969.55a5.307 5.307 0 0 1 3.038 3.038c.219.563.481 1.413.55 2.969.075 1.688.094 2.194.094 6.464s-.019 4.782-.094 6.464zM16.064 10.785a5.281 5.281 0 1 0 5.283 5.281 5.29 5.29 0 0 0-5.283-5.281zm0 8.643a3.383 3.383 0 1 1 3.387-3.387 3.383 3.383 0 0 1-3.387 3.387z" fill="#2f2f30"></path>
</symbol>
</defs>
</svg>